# xmcd
#
# Track frame offsets:
#	150
#	14637
#	28743
#	45258
#	60202
#	74311
#	88843
#	101561
#	116213
#	130073
#	146123
#	159060
#	172642
#	187022
#	201511
#	215373
#	228981
#	243523
#	256666
#	270519
#
# Disc length: 3803 seconds
#
# Revision: 2
# Processed by: cddbd v1.5.2PL0 Copyright (c) Steve Scherf et al.
# Submitted via: audiograbber 1.83.01
#
DISCID=110ed914
DTITLE=VA_Jazz In The Charts - Vol. 10 (1931)
DYEAR=1900
DGENRE=Jazz
TTITLE0=Benny Goodmann and His Orchestra - He's Not Worth Your Tears
TTITLE1=Ethel Waters - Three Little Words
TTITLE2=California Ramblers - The Peanut Vendor
TTITLE3=Casa Loma Orchestra - Casa Loma Stomp
TTITLE4=Ethel Waters - I Got Rhythm
TTITLE5=Duke Ellington and His Cotton Club Orchestra - Blue Again
TTITLE6=Red Nichols and his Five Pennies - The Peanut Vendor
TTITLE7=Red Nichols and His Five Pennies - Blue Again
TTITLE8=Duke Ellington and His Cotton Club Orchestra - Mood Indigo
TTITLE9=Louis Armstrong and His Sebastian New Cotton Club Orchestra - The Peanut 
TTITLE9=Vendor
TTITLE10=Jimmie Noones's Apex Club Orchestra - Travlin' All Alone
TTITLE11=The Jungle Band (Duke Ellington) - Rockin' In Rhythm
TTITLE12=Cab Calloway and His Orchestra - Minnie The Moocher
TTITLE13=Noble Sissle and His Orchestra - Got The Bench, Got The Park
TTITLE14=Charleston Chasers - Walkin' My Baby Back Home
TTITLE15=Red Nichols and His Orchestra - Corinne Corinna
TTITLE16=Charleston Chasers - Basin Street Blues
TTITLE17=Ben Pollack - I've Got Five Dollars
TTITLE18=Cab Calloway and His Orchestra - St. James Infirmary
TTITLE19=Cab Calloway and His Orchestra - Nobody's Sweetheart
EXTD=
EXTT0=
EXTT1=
EXTT2=
EXTT3=
EXTT4=
EXTT5=
EXTT6=
EXTT7=
EXTT8=
EXTT9=
EXTT10=
EXTT11=
EXTT12=
EXTT13=
EXTT14=
EXTT15=
EXTT16=
EXTT17=
EXTT18=
EXTT19=
PLAYORDER=
